<?xml version="1.0" standalone="no"?>
<!DOCTYPE svg PUBLIC "-//W3C//DTD SVG 1.1//EN" "http://www.w3.org/Graphics/SVG/1.1/DTD/svg11.dtd" >
<svg xmlns="http://www.w3.org/2000/svg">
<metadata>
This is a custom SVG webfont generated by Font Squirrel.
Copyright   : URWCopyright 2006 by URW Design  Development
</metadata>
<defs>
<font id="AlternateGotNo1DRegular" horiz-adv-x="696" vert-adv-y="2048" >
<font-face units-per-em="2048" ascent="1700" descent="-348" />
<missing-glyph horiz-adv-x="355" />
<glyph unicode=" "  horiz-adv-x="355" />
<glyph unicode="&#x09;" horiz-adv-x="355" />
<glyph unicode="&#xa0;" horiz-adv-x="355" />
<glyph unicode="!" horiz-adv-x="458" vert-adv-y="0" d="M123 1365h213l-48 -983h-123zM134 0v205h191v-205h-191z" />
<glyph unicode="&#x22;" horiz-adv-x="720" vert-adv-y="2457" d="M91 1365h207l-33 -546h-142zM423 1365h206l-32 -546h-142z" />
<glyph unicode="#" horiz-adv-x="749" vert-adv-y="2457" d="M78 372l21 140h81l45 325h-87l22 139h85l54 389h99l-54 -389h129l54 389h100l-54 -389h83l-19 -139h-83l-46 -325h92l-20 -140h-91l-51 -372h-100l52 372h-129l-52 -372h-100l52 372h-83zM280 512h129l45 325h-129z" />
<glyph unicode="$" vert-adv-y="2457" d="M88 345q0 33 2 69l179 9q-1 -37 -1 -56q0 -78 9 -108q20 -67 82 -67q85 0 85 127q0 61 -31 127q-20 43 -80 122l-90 131q-72 104 -104 176q-43 95 -43 187q0 168 120 238q26 16 62 26v121h154v-117q110 -25 155 -138q23 -58 23 -198l-177 -18q-1 82 -6 116q-11 80 -74 80 q-78 0 -78 -118q0 -67 32 -125q19 -34 96 -148l92 -131q62 -88 92 -155q37 -85 37 -175q0 -221 -191 -279v-123h-154v117q-56 12 -103 54q-55 50 -75 120q-13 47 -13 136z" />
<glyph unicode="%" horiz-adv-x="971" vert-adv-y="2457" d="M82 830v355q0 72 6 94q14 57 64 83q33 17 73 17q82 0 120 -59q20 -31 22 -70q1 -22 1 -65v-355q0 -64 -4 -88t-19 -48q-38 -59 -120 -59t-120 59q-20 31 -22 71q-1 22 -1 65zM183 793q0 -58 42 -58t42 58v428q0 59 -42 59t-42 -59v-428zM242 -68l386 1502h102l-394 -1502 h-94zM603 182v354q0 72 6 95q14 56 64 82q33 17 73 17q82 0 120 -59q20 -31 22 -69q1 -22 1 -65v-355q0 -73 -6 -95q-14 -57 -64 -83q-33 -18 -73 -18q-82 0 -120 60q-20 31 -22 70q-1 23 -1 66zM704 145q0 -59 42 -59t42 59v428q0 58 -42 58t-42 -58v-428z" />
<glyph unicode="&#x26;" horiz-adv-x="855" vert-adv-y="2457" d="M96 302q0 184 143 394q-29 58 -50 129q-48 156 -48 251q0 115 52 185q68 90 187 90q109 0 173 -77q54 -66 54 -172q0 -145 -116 -318q-41 -61 -74 -104q34 -83 57 -130q31 -59 89 -142q39 95 63 232l161 -20q-22 -189 -110 -350q27 -38 50 -54q14 -11 44 -25v-205 q-89 29 -190 125q-52 -56 -84 -77q-75 -49 -163 -49q-111 0 -177 96q-61 89 -61 221zM261 316q0 -65 21 -110q23 -51 72 -51q59 0 120 81q-99 139 -159 278q-54 -106 -54 -198zM299 1084q0 -61 50 -229q101 158 101 250q0 93 -69 93q-82 0 -82 -114z" />
<glyph unicode="'" horiz-adv-x="394" vert-adv-y="2457" d="M91 1365h212l-32 -546h-148z" />
<glyph unicode="(" horiz-adv-x="559" vert-adv-y="2457" d="M82 594q0 416 281 848l128 -74q-75 -122 -124 -241q-108 -259 -108 -533t108 -532q49 -119 124 -242l-128 -73q-281 433 -281 847z" />
<glyph unicode=")" horiz-adv-x="559" vert-adv-y="2457" d="M68 -180q74 120 124 242q108 258 108 532t-108 532q-50 121 -124 242l128 74q88 -137 141 -249q140 -298 140 -599q0 -415 -281 -847z" />
<glyph unicode="*" horiz-adv-x="641" vert-adv-y="2457" d="M82 1206l46 143l133 -62l-16 147h151l-16 -147l133 62l46 -143l-143 -30l98 -108l-121 -88l-72 126l-73 -126l-121 88l98 108z" />
<glyph unicode="+" vert-adv-y="2457" d="M76 641v135h197v222h149v-222h199v-135h-199v-219h-149v219h-197z" />
<glyph unicode="," horiz-adv-x="382" vert-adv-y="2457" d="M96 -1v205h191v-205l-86 -242h-105l70 242h-70z" />
<glyph unicode="-" horiz-adv-x="255" vert-adv-y="2457" d="M0 427v160h255v-160h-255z" />
<glyph unicode="." horiz-adv-x="382" vert-adv-y="2457" d="M96 0v205h191v-205h-191z" />
<glyph unicode="/" horiz-adv-x="638" vert-adv-y="2457" d="M34 -137l427 1502h129l-434 -1502h-122z" />
<glyph unicode="0" vert-adv-y="2457" d="M78 348v671q0 137 11 178q26 106 121 155q63 33 139 33q93 0 164 -48q84 -57 101 -167q5 -34 5 -151v-671q0 -137 -11 -179q-26 -106 -121 -156q-63 -33 -139 -33q-93 0 -164 48q-84 58 -101 169q-5 34 -5 151zM269 268q0 -55 14 -77q22 -34 65 -34q44 0 65 34 q15 23 15 77v829q0 55 -14 77q-22 34 -66 34q-43 0 -65 -34q-14 -22 -14 -77v-829z" />
<glyph unicode="1" vert-adv-y="2457" d="M170 1100v136q100 56 169 129h119v-1365h-191v1100h-97z" />
<glyph unicode="2" vert-adv-y="2457" d="M85 0v156q55 101 193 382q100 205 123 295q23 88 23 205q0 103 -15 140q-13 31 -51 31q-56 0 -70 -75q-9 -51 -10 -166h-179q-1 39 -1 59q0 146 49 235q68 123 220 123q128 0 189 -89q54 -78 54 -207q0 -200 -97 -446q-52 -134 -122 -260l-91 -165l-22 -41h319v-177h-512 z" />
<glyph unicode="3" vert-adv-y="2457" d="M82 307q0 33 3 83h185q-1 -33 -1 -53q0 -63 7 -103q13 -78 70 -78q38 0 53 33q11 26 11 106v187q0 73 -26 106q-34 43 -99 43q-9 0 -27 -1v175q75 2 107 33q45 44 45 113v181q0 76 -60 76q-53 0 -64 -48q-6 -31 -6 -156h-177q-1 33 -1 50q0 128 31 199q57 132 211 132 q121 0 185 -86q41 -55 50 -126q7 -53 7 -122q0 -181 -23 -239q-15 -40 -76 -86q68 -28 91 -76q23 -49 23 -302q0 -147 -26 -214q-59 -155 -240 -155q-145 0 -206 103q-47 78 -47 225z" />
<glyph unicode="4" vert-adv-y="2457" d="M47 304v177l309 884h191v-884h75v-177h-75v-304h-191v304h-309zM207 481h149v495z" />
<glyph unicode="5" vert-adv-y="2457" d="M85 300q0 43 5 86h178q-1 -37 -1 -55q0 -105 25 -144q18 -30 54 -30q69 0 69 108v413q0 99 -59 99t-88 -112h-163l21 700h446l-8 -177h-283l-13 -329q77 96 151 96q48 0 91 -30q96 -66 96 -285v-316q0 -128 -19 -182q-31 -85 -110 -128q-63 -34 -138 -34q-128 0 -197 96 q-57 79 -57 224z" />
<glyph unicode="6" vert-adv-y="2457" d="M83 270v833q0 136 77 213q71 70 179 70q95 0 161 -55q76 -62 91 -188q6 -47 6 -126h-181q2 34 2 55q0 64 -12 94q-17 42 -61 42q-40 0 -59 -34q-12 -23 -12 -95v-304q74 80 149 80q87 0 139 -72q38 -52 45 -114q7 -61 7 -155v-230q0 -145 -73 -223q-75 -82 -198 -82 q-89 0 -153 45q-107 75 -107 246zM274 240q0 -39 24 -63q20 -20 49 -20q76 0 76 100v293q0 100 -18 124q-16 22 -45 22q-46 0 -86 -50v-406z" />
<glyph unicode="7" vert-adv-y="2457" d="M94 1188v177h487v-107l-202 -1258h-200l202 1188h-287z" />
<glyph unicode="8" vert-adv-y="2457" d="M88 349q0 176 8 237q8 69 43 104q19 18 63 36q-61 45 -76 86q-23 59 -23 239q0 119 19 175q53 159 226 159q124 0 188 -86q41 -56 50 -126q7 -54 7 -123q0 -180 -23 -238q-15 -41 -76 -86q68 -28 91 -76q23 -49 23 -301q0 -147 -26 -214q-59 -155 -234 -155 q-130 0 -197 89q-40 51 -51 115q-12 70 -12 165zM274 276q0 -78 20 -99q21 -22 54 -22t54 22q20 21 20 99v229q0 79 -20 100q-21 22 -54 22t-54 -22q-20 -21 -20 -100v-229zM281 931q0 -62 17 -87q16 -23 50 -23t50 23q17 25 17 87v180q0 62 -17 87q-16 23 -50 23t-50 -23 q-17 -25 -17 -87v-180z" />
<glyph unicode="9" vert-adv-y="2457" d="M83 851v230q0 145 73 223q75 82 199 82q88 0 152 -45q107 -75 107 -246v-833q0 -136 -77 -213q-71 -70 -179 -70q-95 0 -161 55q-76 63 -91 188q-6 47 -6 126h181q-2 -31 -2 -55q0 -64 12 -94q17 -42 61 -42q40 0 59 34q12 24 12 95v305q-73 -81 -149 -81q-87 0 -139 72 q-38 52 -45 114q-7 61 -7 155zM274 815q0 -100 18 -124q16 -22 45 -22q46 0 86 49v407q0 39 -24 63q-20 20 -49 20q-76 0 -76 -99v-294z" />
<glyph unicode=":" horiz-adv-x="382" vert-adv-y="2457" d="M96 0v205h191v-205h-191zM96 718v205h191v-205h-191z" />
<glyph unicode=";" horiz-adv-x="382" vert-adv-y="2457" d="M96 -1v205h191v-205l-86 -242h-105l70 242h-70zM96 718v205h191v-205h-191z" />
<glyph unicode="&#x3c;" horiz-adv-x="1024" vert-adv-y="2457" d="M68 605v165l887 429v-192l-682 -320l681 -321l1 -191z" />
<glyph unicode="=" vert-adv-y="2457" d="M76 504v135h545v-135h-545zM76 777v135h545v-135h-545z" />
<glyph unicode="&#x3e;" horiz-adv-x="1024" vert-adv-y="2457" d="M69 175v192l682 320l-681 321l-1 191l887 -430v-164z" />
<glyph unicode="?" horiz-adv-x="666" vert-adv-y="2457" d="M82 1134q59 245 265 245q122 0 189 -82q51 -64 51 -158q0 -54 -21 -115q-9 -24 -102 -202q-36 -69 -45 -145q-6 -53 -6 -141v-161h-158v217q0 137 13 191.5t84 221.5q48 112 48 145q0 27 -23 45q-18 14 -40 14q-55 0 -96 -129zM238 0v205h191v-205h-191z" />
<glyph unicode="@" horiz-adv-x="827" vert-adv-y="2457" d="M109 332v713q0 153 73 240q84 100 243 100q124 0 205 -65q108 -88 108 -264v-694h-106l-20 56q-54 -76 -123 -76q-65 0 -94 32q-40 45 -40 139v384q0 92 37 137q40 50 107 50q54 0 100 -53v44q0 83 -41 128q-52 58 -133 58q-80 0 -130 -59q-38 -43 -44 -99q-4 -36 -4 -89 v-638q0 -123 32 -182q50 -91 154 -91q93 0 166 92l83 -95q-94 -121 -248 -121q-95 0 -175 43q-75 41 -113 126q-37 84 -37 184zM497 555q0 -45 11 -60q13 -17 40 -17t40 17q11 15 11 60v310q0 45 -11 60q-13 17 -40 17t-40 -17q-11 -15 -11 -60v-310z" />
<glyph unicode="A" horiz-adv-x="720" vert-adv-y="2457" d="M55 0l186 1365h247l178 -1365h-188l-34 307h-171l-34 -307h-184zM293 484h131l-66 634z" />
<glyph unicode="B" horiz-adv-x="718" vert-adv-y="2457" d="M82 0v1365h172q142 0 195 -23q106 -45 145 -150q25 -66 25 -170q0 -148 -39 -223q-22 -41 -83 -80q73 -28 106 -87q27 -49 33 -104q7 -58 7 -127q0 -164 -29 -233q-41 -100 -139 -139q-73 -29 -202 -29h-191zM273 177h18q92 0 126 39q22 24 29 72q6 33 6 111 q0 104 -13 143q-15 45 -51 63q-32 16 -97 16h-18v-444zM273 799h27q88 0 116 49q18 33 18 157q0 81 -12 118q-21 65 -122 65h-27v-389z" />
<glyph unicode="C" vert-adv-y="2457" d="M79 306v753q0 327 269 327q276 0 276 -356q0 -39 -4 -108h-191q4 57 4 93q0 100 -10 135q-17 59 -75 59q-45 0 -63 -32q-15 -27 -15 -118v-753q0 -90 15 -118q17 -32 63 -32q52 0 69 42q16 40 16 145q0 52 -4 142h190q5 -99 5 -144q0 -362 -276 -362q-269 0 -269 327z " />
<glyph unicode="D" horiz-adv-x="702" vert-adv-y="2457" d="M82 0v1365h204q127 0 186 -29q151 -73 151 -285v-737q0 -155 -86 -239q-50 -50 -115 -63q-56 -12 -136 -12h-204zM273 177h24q85 0 113 37q22 29 22 100v737q0 83 -34 111q-31 26 -101 26h-24v-1011z" />
<glyph unicode="E" horiz-adv-x="602" vert-adv-y="2457" d="M82 0v1365h460v-177h-269v-384h189v-177h-189v-450h286v-177h-477z" />
<glyph unicode="F" horiz-adv-x="569" vert-adv-y="2457" d="M82 0v1365h460v-177h-269v-384h189v-177h-189v-627h-191z" />
<glyph unicode="G" horiz-adv-x="703" vert-adv-y="2457" d="M79 336v723q0 327 269 327q276 0 276 -356q0 -37 -4 -108h-190q3 56 3 93q0 100 -10 135q-17 59 -75 59q-46 0 -63 -32q-15 -28 -15 -118v-723q0 -110 13 -137q21 -42 64 -42q48 0 70 48q12 28 12 131v197h-84v161h275v-694h-102l-30 94q-78 -114 -176 -114 q-86 0 -152 65q-57 56 -73 149q-8 47 -8 142z" />
<glyph unicode="H" horiz-adv-x="700" vert-adv-y="2457" d="M82 0v1365h191v-561h155v561h191v-1365h-191v627h-155v-627h-191z" />
<glyph unicode="I" horiz-adv-x="355" vert-adv-y="2457" d="M82 0v1365h191v-1365h-191z" />
<glyph unicode="J" horiz-adv-x="414" vert-adv-y="2457" d="M20 0v189h13q56 0 80 20q27 24 27 97v1059h191v-1038q0 -153 -20 -203q-43 -102 -173 -119q-39 -5 -118 -5z" />
<glyph unicode="K" horiz-adv-x="736" vert-adv-y="2457" d="M82 0v1365h191v-514l187 514h194l-172 -461l213 -904h-199l-140 646l-83 -225v-421h-191z" />
<glyph unicode="L" horiz-adv-x="576" vert-adv-y="2457" d="M82 0v1365h191v-1187h269v-178h-460z" />
<glyph unicode="M" horiz-adv-x="889" vert-adv-y="2457" d="M82 0v1365h226l135 -680l134 680h230v-1365h-164v964l-159 -964h-83l-159 964v-964h-160z" />
<glyph unicode="N" horiz-adv-x="770" vert-adv-y="2457" d="M82 0v1365h165l250 -804v804h191v-1365h-191l-224 716v-716h-191z" />
<glyph unicode="O" horiz-adv-x="699" vert-adv-y="2457" d="M79 348v671q0 137 11 178q26 106 121 155q63 33 139 33q93 0 164 -48q84 -57 101 -167q5 -34 5 -151v-671q0 -137 -11 -179q-26 -106 -121 -156q-63 -33 -139 -33q-93 0 -164 48q-84 58 -101 169q-5 34 -5 151zM270 268q0 -55 14 -77q22 -34 65 -34q44 0 65 34 q15 23 15 77v829q0 55 -14 77q-22 34 -66 34q-43 0 -65 -34q-14 -22 -14 -77v-829z" />
<glyph unicode="P" horiz-adv-x="673" vert-adv-y="2457" d="M82 0v1365h181q163 0 220 -35q72 -43 109 -141q26 -70 26 -231q0 -169 -24 -234q-61 -170 -295 -170h-26v-554h-191zM273 732h27q88 0 115 50q19 34 19 178q0 150 -23 184q-30 44 -111 44h-27v-456z" />
<glyph unicode="Q" horiz-adv-x="699" vert-adv-y="2457" d="M79 348v671q0 137 11 178q26 106 121 155q63 33 139 33q93 0 164 -48q84 -57 101 -167q5 -34 5 -151v-671q0 -136 -10 -176q-4 -20 -12 -40q19 -27 58 -42v-187q-11 -1 -18 -1q-73 0 -133 41q-28 20 -52 54q-50 -17 -104 -17q-93 0 -164 48q-84 58 -101 169q-5 34 -5 151 zM270 268q0 -55 14 -77q22 -34 65 -34q44 0 65 34q15 23 15 77v829q0 55 -14 77q-22 34 -66 34q-43 0 -65 -34q-14 -22 -14 -77v-829z" />
<glyph unicode="R" horiz-adv-x="714" vert-adv-y="2457" d="M82 0v1365h187q153 0 216 -39q134 -83 134 -342q0 -131 -21 -202q-17 -55 -76 -130l134 -652h-205l-109 587q-36 -6 -69 -7v-580h-191zM273 771h27q87 0 115 50q18 32 18 183q0 108 -23 141q-30 43 -110 43h-27v-417z" />
<glyph unicode="S" horiz-adv-x="664" vert-adv-y="2457" d="M52 322q0 33 3 72l188 10q-1 -38 -1 -67t1 -50q7 -131 96 -131q87 0 87 136q0 67 -32 137q-21 45 -85 131l-94 140q-76 114 -109 189q-45 103 -45 201q0 131 70 209q77 87 210 87q136 0 204 -98q54 -76 56 -202v-69l-187 -19q0 89 -5 125q-12 86 -80 86q-79 0 -79 -128 q0 -72 33 -133q20 -37 101 -159l96 -141q137 -200 137 -384q0 -111 -47 -181q-69 -104 -231 -104q-151 0 -227 104q-41 55 -52 117q-8 50 -8 122z" />
<glyph unicode="T" horiz-adv-x="583" vert-adv-y="2457" d="M14 1188v177h556v-177h-186v-1188h-191v1188h-179z" />
<glyph unicode="U" horiz-adv-x="705" vert-adv-y="2457" d="M82 346v1019h191v-1097q0 -54 14 -77q22 -34 65 -34q44 0 66 34q14 22 14 77v1097h191v-1019q0 -137 -11 -178q-26 -106 -121 -155q-62 -33 -139 -33q-93 0 -164 48q-84 57 -101 167q-5 34 -5 151z" />
<glyph unicode="V" horiz-adv-x="648" vert-adv-y="2457" d="M27 1365h188l115 -830l110 830h180l-198 -1365h-189z" />
<glyph unicode="W" horiz-adv-x="955" vert-adv-y="2457" d="M41 1365h174l97 -775l92 775h150l91 -804l95 804h175l-175 -1365h-165l-99 734l-92 -734h-169z" />
<glyph unicode="X" horiz-adv-x="716" vert-adv-y="2457" d="M41 0l205 713l-188 652h192l113 -422l111 422h184l-188 -652l205 -713h-205l-112 452l-112 -452h-205z" />
<glyph unicode="Y" horiz-adv-x="670" vert-adv-y="2457" d="M27 1365h206l104 -503l105 503h200l-212 -797v-568h-191v568z" />
<glyph unicode="Z" horiz-adv-x="640" vert-adv-y="2457" d="M55 0v177l340 1011h-302v177h493v-177l-340 -1011h340v-177h-531z" />
<glyph unicode="[" horiz-adv-x="559" vert-adv-y="2457" d="M147 -221v1586h278v-177h-111v-1232h111v-177h-278z" />
<glyph unicode="\" horiz-adv-x="638" vert-adv-y="2457" d="M48 1365h128l428 -1502h-122z" />
<glyph unicode="]" horiz-adv-x="559" vert-adv-y="2457" d="M134 -44h111v1232h-111v177h278v-1586h-278v177z" />
<glyph unicode="^" horiz-adv-x="1024" vert-adv-y="2457" d="M57 755l346 615h218l346 -615h-178l-278 483l-277 -483h-177z" />
<glyph unicode="_" horiz-adv-x="1024" vert-adv-y="2457" d="M0 -140h1024v-122h-1024v122z" />
<glyph unicode="`" horiz-adv-x="1024" vert-adv-y="2457" d="M312 1337h198l94 -153h-144z" />
<glyph unicode="a" horiz-adv-x="628" vert-adv-y="2457" d="M62 243q0 121 49 203q45 77 169 156l89 59v114q0 55 -7 69q-13 23 -49 23q-46 0 -60 -46q-8 -27 -12 -103h-172q12 144 46 205q60 108 202 108q108 0 169 -64q60 -61 60 -179v-624q0 -103 19 -164h-184q-8 36 -12 83q-65 -97 -151 -97q-156 0 -156 257zM239 258 q0 -107 56 -107q38 0 74 54v316q-78 -64 -106 -127q-24 -53 -24 -136z" />
<glyph unicode="b" horiz-adv-x="634" vert-adv-y="2457" d="M76 0v1365h177v-444q96 110 171 110q42 0 79 -28q39 -31 49 -94q6 -35 6 -118v-565q0 -136 -28 -181q-16 -28 -51 -45q-28 -14 -56 -14q-75 0 -170 110v-96h-177zM253 191q49 -41 82 -41q46 0 46 76v565q0 76 -46 76q-33 0 -82 -41v-635z" />
<glyph unicode="c" horiz-adv-x="613" vert-adv-y="2457" d="M72 273v471q0 132 55 202q67 85 183 85q139 0 203 -93q47 -67 47 -183q0 -19 -2 -94h-178v41v45q0 66 -12 89q-16 32 -55 32q-64 0 -64 -105v-509q0 -105 64 -105q39 0 55 32q12 23 12 89v45v58h178q2 -87 2 -108q0 -119 -47 -186q-64 -93 -202 -93q-117 0 -184 86 q-55 69 -55 201z" />
<glyph unicode="d" horiz-adv-x="634" vert-adv-y="2457" d="M75 226v565q0 135 28 181q16 28 51 45q27 14 55 14q75 0 171 -110v444h177v-1365h-173l-4 96q-95 -110 -170 -110q-42 0 -79 28q-40 31 -50 94q-6 35 -6 118zM252 226q0 -76 46 -76q33 0 82 41v635q-49 41 -82 41q-46 0 -46 -76v-565z" />
<glyph unicode="e" horiz-adv-x="634" vert-adv-y="2457" d="M72 273v473q0 135 54 204q63 81 193 81q111 0 175 -69q64 -68 64 -185v-299h-309v-224q0 -105 65 -105q39 0 55 32q12 23 12 89v45v41h177q3 -74 3 -94q0 -116 -47 -183q-64 -93 -202 -93q-118 0 -185 86q-55 69 -55 201zM249 620h132v172q0 75 -66 75t-66 -75v-172z" />
<glyph unicode="f" horiz-adv-x="384" vert-adv-y="2457" d="M22 853v164h81v120q0 112 41 163q53 68 159 68q27 0 67 -3v-164q-14 1 -25 1q-65 0 -65 -65v-120h90v-164h-90v-853h-177v853h-81z" />
<glyph unicode="g" horiz-adv-x="625" vert-adv-y="2457" d="M33 -178q0 101 152 178q-55 18 -80 37q-41 30 -41 83q0 96 121 167q-101 76 -101 218v295q0 103 56 164q62 67 162 67q115 0 183 -95q28 48 57 69q29 20 77 26v-168q-26 9 -43 9q-24 0 -54 -19v-29v-41v-248q0 -117 -43 -184q-58 -91 -169 -91q-19 0 -46 2 q-51 -11 -51 -49q0 -37 46 -55q23 -9 161 -27q98 -13 153 -73q57 -62 57 -159q0 -115 -84 -189q-83 -73 -230 -73q-122 0 -200 43q-43 25 -67 72q-16 33 -16 70zM210 -122q0 -32 20 -55q32 -36 100 -36q77 0 112 43q21 25 21 60q0 51 -43 70q-19 9 -68 18q-36 8 -49 8 q-4 0 -5 -1q-40 -22 -55 -36q-33 -30 -33 -71zM240 498q0 -76 63 -76t63 76v295q0 76 -63 76t-63 -76v-295z" />
<glyph unicode="h" horiz-adv-x="635" vert-adv-y="2457" d="M76 0v1365h177v-444q96 110 170 110q42 0 79 -28q40 -30 50 -94q6 -35 6 -118v-791h-177v791q0 76 -46 76q-33 0 -82 -41v-826h-177z" />
<glyph unicode="i" horiz-adv-x="330" vert-adv-y="2457" d="M76 0v1017h177v-1017h-177zM76 1183v182h177v-182h-177z" />
<glyph unicode="j" horiz-adv-x="336" vert-adv-y="2457" d="M-31 -152q22 -6 36 -6q33 0 53 19q16 16 21 50q3 21 3 89v1017h177v-1017q0 -139 -11 -186q-33 -149 -195 -149q-39 0 -84 14v169zM82 1183v182h177v-182h-177z" />
<glyph unicode="k" horiz-adv-x="628" vert-adv-y="2457" d="M76 0v1365h177v-740l136 392h166l-131 -325l169 -692h-176l-106 493l-58 -140v-353h-177z" />
<glyph unicode="l" horiz-adv-x="330" vert-adv-y="2457" d="M76 0v1365h177v-1365h-177z" />
<glyph unicode="m" horiz-adv-x="939" vert-adv-y="2457" d="M76 0v1017h173l4 -96q95 110 176 110q48 0 80 -30q23 -22 44 -80q71 110 166 110q79 0 115 -58q21 -35 24 -81q4 -42 4 -101v-791h-177v791q0 76 -49 76q-31 0 -79 -41v-826h-177v791q0 76 -46 76q-32 0 -81 -41v-826h-177z" />
<glyph unicode="n" horiz-adv-x="635" vert-adv-y="2457" d="M76 0v1017h173l4 -88q99 102 170 102q42 0 79 -27q40 -30 50 -92q6 -34 6 -114v-798h-177v791q0 76 -46 76q-33 0 -82 -41v-826h-177z" />
<glyph unicode="o" horiz-adv-x="631" vert-adv-y="2457" d="M72 273v471q0 287 243 287t243 -287v-471q0 -287 -243 -287t-243 287zM249 244q0 -94 66 -94t66 94v529q0 94 -66 94t-66 -94v-529z" />
<glyph unicode="p" horiz-adv-x="634" vert-adv-y="2457" d="M76 -348v1365h173l4 -96q96 110 170 110q42 0 79 -28q40 -30 50 -94q6 -35 6 -118v-565q0 -135 -28 -181q-16 -28 -51 -45q-27 -14 -55 -14q-75 0 -171 110v-444h-177zM253 191q49 -41 82 -41q46 0 46 76v565q0 76 -46 76q-33 0 -82 -41v-635z" />
<glyph unicode="q" horiz-adv-x="634" vert-adv-y="2457" d="M75 226v565q0 136 28 181q16 28 51 45q28 14 56 14q74 0 170 -110l4 96h173v-1365h-177v444q-96 -110 -171 -110q-42 0 -79 28q-39 31 -49 94q-6 35 -6 118zM252 226q0 -76 46 -76q33 0 82 41v635q-49 41 -82 41q-46 0 -46 -76v-565z" />
<glyph unicode="r" horiz-adv-x="436" vert-adv-y="2457" d="M76 0v1017h177v-127q35 69 74 103q43 38 108 38v-198q-46 8 -67 8q-115 0 -115 -151v-690h-177z" />
<glyph unicode="s" horiz-adv-x="561" vert-adv-y="2457" d="M39 234q0 10 2 25l173 11q-3 -18 -3 -32q0 -88 68 -88q69 0 69 89q0 53 -29 98q-16 25 -75 87l-68 71q-117 122 -117 279q0 257 245 257q88 0 143 -46q65 -55 73 -158q2 -20 2 -54l-171 -11q0 25 -2 39q-7 66 -57 66q-59 0 -59 -96q0 -38 11 -69q13 -37 62 -88l71 -74 q79 -83 116 -152q32 -60 32 -139q0 -101 -54 -173q-67 -90 -193 -90q-147 0 -212 119q-27 50 -27 129z" />
<glyph unicode="t" horiz-adv-x="436" vert-adv-y="2457" d="M31 853v164h86v280h177v-280h126v-164h-126v-598q0 -93 92 -93q8 0 34 2v-164q-67 -14 -102 -14q-94 0 -149 51q-52 49 -52 157v659h-86z" />
<glyph unicode="u" horiz-adv-x="635" vert-adv-y="2457" d="M76 219v798h177v-791q0 -76 46 -76q33 0 82 41v826h177v-1017h-162l-15 88q-99 -102 -170 -102q-42 0 -79 27q-40 30 -50 92q-6 34 -6 114z" />
<glyph unicode="v" horiz-adv-x="578" vert-adv-y="2457" d="M34 1017h170l84 -586l84 586h171l-171 -1017h-168z" />
<glyph unicode="w" horiz-adv-x="853" vert-adv-y="2457" d="M34 1017h161l80 -544l87 544h130l91 -554l79 554h157l-157 -1017h-137l-96 582l-100 -582h-134z" />
<glyph unicode="x" horiz-adv-x="564" vert-adv-y="2457" d="M27 0l158 536l-145 481h166l73 -291l70 291h168l-148 -481l167 -536h-167l-89 324l-85 -324h-168z" />
<glyph unicode="y" horiz-adv-x="582" vert-adv-y="2457" d="M34 1017h174l81 -598l87 598h172l-186 -1155q-17 -105 -71 -156q-71 -68 -189 -68q-25 0 -54 5v172q11 -1 15 -1q62 0 95 30q35 31 35 125q0 66 -19 178z" />
<glyph unicode="z" horiz-adv-x="558" vert-adv-y="2457" d="M55 0v151l263 702h-233v164h419v-152l-255 -701h255v-164h-449z" />
<glyph unicode="{" horiz-adv-x="641" vert-adv-y="2457" d="M84 500v149q56 16 85 53q32 41 32 132v253q0 149 70 215q47 45 117 55q48 8 183 8v-172q-98 -2 -141 -29q-36 -23 -46 -68q-8 -34 -8 -87v-204q0 -103 -30 -159q-23 -42 -83 -76q68 -38 94 -102q19 -49 19 -137v-198q0 -90 20 -124q25 -44 85 -59q29 -7 90 -8v-163 q-178 1 -223 16q-100 34 -131 141q-16 57 -16 145v226q0 101 -34 143q-28 35 -83 50z" />
<glyph unicode="|" horiz-adv-x="1024" vert-adv-y="2457" d="M415 -341v1706h193v-1706h-193z" />
<glyph unicode="}" horiz-adv-x="641" vert-adv-y="2457" d="M69 -58q98 2 139 27q38 23 48 70q8 37 8 94v198q0 95 23 146q27 58 90 93q-65 37 -88 87q-25 55 -25 148v204q0 82 -19 116q-25 44 -86 59q-31 8 -90 9v172q174 -1 221 -17q101 -34 132 -133q17 -53 17 -128v-253q0 -91 32 -132q29 -37 85 -53v-149q-55 -15 -83 -50 q-34 -42 -34 -143v-226q0 -165 -67 -235q-47 -50 -118 -60q-49 -6 -185 -7v163z" />
<glyph unicode="~" horiz-adv-x="1365" vert-adv-y="2457" d="M193 1255q109 241 284 241q76 0 236 -78q96 -48 126 -56q31 -9 56 -9q100 0 181 148l100 -80q-104 -239 -302 -239q-31 0 -73 13q-41 13 -168 75q-107 52 -164 52q-59 0 -106 -47q-34 -35 -70 -100z" />
<glyph unicode="&#xa0;" horiz-adv-x="355" vert-adv-y="2457" />
<glyph unicode="&#xa1;" horiz-adv-x="458" vert-adv-y="2457" d="M123 -348l42 983h123l48 -983h-213zM134 812v205h191v-205h-191z" />
<glyph unicode="&#xa2;" vert-adv-y="2457" d="M111 454v471q0 232 174 279v161h140v-163q64 -18 101 -52q73 -69 73 -214q0 -24 -2 -94h-178l1 41v45q0 66 -12 89q-17 31 -56 31q-36 0 -51 -28q-13 -22 -13 -76v-509q0 -105 64 -105q39 0 56 32q12 23 12 89v45l-1 58h178q2 -83 2 -108q0 -223 -174 -270v-176h-140v174 q-48 12 -87 45q-47 40 -67 93q-20 52 -20 142z" />
<glyph unicode="&#xa3;" vert-adv-y="2457" d="M58 143q66 60 97 129q46 100 46 249q0 50 -6 114h-116v164h82q-7 28 -16 56q-27 89 -35 120q-20 69 -20 128q0 105 58 180q36 46 96 75q60 28 123 28q85 0 157 -51q107 -75 107 -245q0 -30 -7 -71h-173q2 32 2 47q0 143 -86 143q-90 0 -90 -106q0 -36 12 -86 q4 -17 55 -166q6 -17 16 -52h171v-164h-141q4 -46 4 -80q0 -222 -101 -400q46 16 74 16q8 0 75 -10q24 -4 49 -4q64 0 139 34l46 -160q-63 -34 -94 -43t-88 -9q-63 0 -154 19q-52 11 -78 11q-39 0 -140 -29z" />
<glyph unicode="&#xa4;" horiz-adv-x="823" vert-adv-y="2457" d="M78 911l105 105l82 -82q75 43 148 43q79 0 152 -48l81 80l95 -95l-85 -85q37 -69 37 -147q0 -72 -35 -141l87 -87l-105 -105l-82 82q-70 -43 -146 -43q-79 0 -151 45l-79 -78l-95 95l82 83q-39 72 -39 148q0 71 35 143zM261 682q0 -60 36 -107q45 -57 114 -57 q58 0 102 45q48 49 48 115q0 69 -41 114q-47 52 -111 52q-56 0 -98 -43q-50 -51 -50 -119z" />
<glyph unicode="&#xa5;" vert-adv-y="2457" d="M56 1365h195l99 -497l100 497h190l-158 -594h106v-164h-149v-607h-182v607h-148v164h104z" />
<glyph unicode="&#xa6;" horiz-adv-x="1024" vert-adv-y="2457" d="M415 314h193v-655h-193v655zM415 673v692h193v-692h-193z" />
<glyph unicode="&#xa7;" horiz-adv-x="726" vert-adv-y="2457" d="M82 751q0 140 140 205l-20 23q-78 90 -78 192q0 88 55 144q68 71 191 71q101 0 165 -56q78 -70 78 -191q0 -19 -3 -60h-181q2 30 2 42q0 103 -65 103q-24 0 -39.5 -15.5t-15.5 -39.5q0 -29 40 -79l230 -307q63 -84 63 -180q0 -152 -129 -211l19 -25q60 -79 60 -172 q0 -96 -70 -158q-67 -58 -177 -58q-160 0 -223 114q-33 59 -33 141q0 16 3 39h185q-3 -22 -3 -35q0 -96 67 -96q32 0 48 25q10 16 10 38q0 31 -29 69l-198 261q-43 56 -68 108q-24 50 -24 108zM270 747q0 -33 25 -66l114 -153q52 24 52 80q0 33 -35 79l-101 132 q-55 -29 -55 -72z" />
<glyph unicode="&#xa8;" horiz-adv-x="1024" vert-adv-y="2457" d="M311 1183v182h157v-182h-157zM557 1183v182h157v-182h-157z" />
<glyph unicode="&#xa9;" horiz-adv-x="1597" vert-adv-y="2457" d="M93 681q0 201 104 372q102 168 283 260q150 77 329 77q189 0 359 -104q170 -105 260 -282q77 -152 77 -322q0 -199 -104 -369t-280 -260q-152 -78 -321 -78q-199 0 -368 104q-170 104 -261 282q-78 151 -78 320zM204 681q0 -249 176 -427q174 -176 419 -176 q246 0 421 177q174 177 174 427q0 170 -87 317q-86 143 -237 222q-126 66 -263 66q-252 0 -427 -176q-176 -176 -176 -430zM626 463v444q0 200 171 200q175 0 175 -217q0 -26 -3 -71h-130q3 38 3 63q0 57 -6 77q-9 30 -39 30q-24 0 -33 -16q-8 -14 -8 -66v-444q0 -52 8 -67 q9 -15 33 -15q27 0 36 21t9 81q0 33 -3 92h130q3 -62 3 -91q0 -221 -175 -221q-171 0 -171 200z" />
<glyph unicode="&#xaa;" horiz-adv-x="424" vert-adv-y="2457" d="M49 696q0 117 91 187q12 10 71 46l28 18v63q0 31 -3 37q-5 11 -23 11q-23 0 -30 -23q-5 -16 -8 -65h-123q8 94 31 131q40 67 132 67q69 0 110 -39q40 -38 40 -111v-368q0 -63 14 -104h-131q-3 11 -7 35q-44 -43 -88 -43q-104 0 -104 158zM175 705q0 -57 27 -56 q19 1 37 27v169q-64 -55 -64 -140z" />
<glyph unicode="&#xab;" horiz-adv-x="570" vert-adv-y="2457" d="M82 365v294l156 153v-231l-53 -69l53 -69v-231zM333 365v294l156 167v-245l-53 -69l53 -69v-245z" />
<glyph unicode="&#xac;" horiz-adv-x="1024" vert-adv-y="2457" d="M68 405v169h887v-574h-188v405h-699z" />
<glyph unicode="&#xad;" horiz-adv-x="255" vert-adv-y="2457" d="M0 427v160h255v-160h-255z" />
<glyph unicode="&#xae;" horiz-adv-x="1570" vert-adv-y="2457" d="M79 681q0 201 104 372q102 168 283 260q150 77 329 77q189 0 359 -104q170 -105 260 -282q77 -152 77 -322q0 -199 -104 -369t-280 -260q-152 -78 -321 -78q-199 0 -368 104q-170 104 -261 282q-78 151 -78 320zM190 681q0 -249 176 -427q174 -176 419 -176 q246 0 421 177q174 177 174 427q0 170 -87 317q-86 143 -237 222q-126 66 -263 66q-252 0 -427 -176q-176 -176 -176 -430zM617 275v819h121q95 0 135 -24q85 -51 85 -208q0 -79 -13 -121q-11 -33 -45 -76l82 -390h-139l-66 345q-16 -2 -30 -2v-343h-130zM747 744h10 q49 0 64 25q10 18 10 103q0 64 -13 81q-16 23 -61 23h-10v-232z" />
<glyph unicode="&#xaf;" horiz-adv-x="1024" vert-adv-y="2457" d="M344 1177v137h335v-137h-335z" />
<glyph unicode="&#xb0;" horiz-adv-x="753" vert-adv-y="2457" d="M96 1083q0 91 48 167q42 67 116 102q58 27 118 27q120 0 205 -94q75 -83 75 -204q0 -122 -85 -208q-83 -83 -195 -83q-126 0 -209 96q-73 84 -73 197zM227 1084q0 -60 36 -107q44 -57 113 -57q58 0 102 45q48 49 48 115q0 69 -41 114q-46 52 -110 52q-56 0 -99 -43 q-49 -51 -49 -119z" />
<glyph unicode="&#xb1;" vert-adv-y="2457" d="M76 139v135h545v-135h-545zM76 597v135h197v222h149v-222h199v-135h-199v-219h-149v219h-197z" />
<glyph unicode="&#xb2;" horiz-adv-x="471" vert-adv-y="2457" d="M63 547v101q32 56 122 233q62 120 77 177t15 111q0 47 -7 68q-8 22 -30 22q-28 0 -36 -39q-5 -29 -6 -103h-126q-1 28 -1 41q0 219 177 219q83 0 124 -55q35 -49 35 -127q0 -119 -61 -265q-33 -79 -135 -251l-8 -14h196v-118h-336z" />
<glyph unicode="&#xb3;" horiz-adv-x="471" vert-adv-y="2457" d="M65 734q0 23 2 56h130q-1 -28 -1 -38q0 -37 4 -59q8 -41 38 -41q19 0 27 16q7 16 7 59v110q0 81 -73 81q-10 0 -23 -1v118q96 0 96 79v107q0 38 -32 38q-20 0 -28 -10q-10 -12 -10 -73q0 -11 1 -38h-125q-1 25 -1 36q0 203 159 203q81 0 123 -53q27 -35 33 -78 q4 -32 4 -76q0 -105 -15 -141q-9 -23 -40 -46q36 -16 49 -43q16 -33 16 -181q0 -119 -41 -170q-45 -55 -134 -55q-166 0 -166 200z" />
<glyph unicode="&#xb4;" horiz-adv-x="1024" vert-adv-y="2457" d="M407 1184l93 153h199l-148 -153h-144z" />
<glyph unicode="&#xb5;" horiz-adv-x="635" vert-adv-y="2457" d="M76 -348v1365h177v-753q0 -84 14 -107q17 -27 47 -27q46 0 67 61v826h177v-1017h-162l-13 74q-20 -88 -76 -88q-45 0 -54 48v-382h-177z" />
<glyph unicode="&#xb6;" horiz-adv-x="856" vert-adv-y="2457" d="M82 1006q0 124 66 221q95 138 280 138h353v-61h-82v-1509h-98v1509h-114v-1509h-100v859q-84 4 -161 56q-64 44 -103 120q-41 82 -41 176z" />
<glyph unicode="&#xb7;" horiz-adv-x="382" vert-adv-y="2457" d="M96 423v205h191v-205h-191z" />
<glyph unicode="&#xb8;" horiz-adv-x="1024" vert-adv-y="2457" d="M432 -96h160v-138l-44 -114h-98l36 114h-54v138z" />
<glyph unicode="&#xb9;" horiz-adv-x="471" vert-adv-y="2457" d="M116 1195v91q65 34 111 79h84v-819h-134v649h-61z" />
<glyph unicode="&#xba;" horiz-adv-x="427" vert-adv-y="2457" d="M54 714v278q0 176 159 176t159 -176v-278q0 -176 -159 -176t-159 176zM180 697q0 -49 33 -49t33 49v312q0 49 -33 49t-33 -49v-312z" />
<glyph unicode="&#xbb;" horiz-adv-x="570" vert-adv-y="2457" d="M82 198v245l53 69l-53 69v245l156 -167v-294zM333 212v231l53 69l-53 69v231l156 -153v-294z" />
<glyph unicode="&#xbc;" horiz-adv-x="1116" vert-adv-y="2457" d="M116 1195v91q65 34 111 79h84v-819h-134v649h-61zM314 -68l386 1502h101l-393 -1502h-94zM683 180v113l197 526h132v-521h47v-118h-47v-180h-134v180h-195zM784 291h100v309z" />
<glyph unicode="&#xbd;" horiz-adv-x="1116" vert-adv-y="2457" d="M116 1195v91q65 34 111 79h84v-819h-134v649h-61zM314 -68l386 1502h101l-393 -1502h-94zM707 0v101q29 51 122 233q62 121 77 177q15 58 15 112q0 47 -7 68q-8 22 -29 22q-29 0 -36 -39q-6 -29 -7 -103h-126q-1 29 -1 41q0 219 177 219q83 0 124 -55q35 -48 35 -126 q0 -120 -61 -266q-34 -81 -135 -252l-8 -14h196v-118h-336z" />
<glyph unicode="&#xbe;" horiz-adv-x="1116" vert-adv-y="2457" d="M65 734q0 23 2 56h130q-1 -28 -1 -38q0 -37 4 -59q8 -41 38 -41q19 0 27 16q6 14 6 59v110q0 81 -72 81q-10 0 -23 -1v118q51 0 69 17q26 24 26 62v107q0 38 -31 38q-20 0 -28 -10q-10 -12 -10 -73q0 -11 1 -38h-125q-1 25 -1 36q0 203 159 203q80 0 123 -53 q27 -35 33 -78q4 -32 4 -76q0 -105 -15 -141q-9 -23 -40 -46q36 -16 49 -43q15 -30 15 -181q0 -90 -16 -130q-40 -95 -158 -95q-166 0 -166 200zM314 -68l386 1502h101l-393 -1502h-94zM683 180v113l197 526h132v-521h47v-118h-47v-180h-134v180h-195zM784 291h100v308z" />
<glyph unicode="&#xbf;" horiz-adv-x="666" vert-adv-y="2457" d="M79 -122q0 54 21 115q9 24 102 203q36 68 45 144q6 53 6 141v161h158v-217q0 -147 -19 -213q-14 -50 -78 -200q-48 -112 -48 -145q0 -28 23 -45q18 -14 40 -14q55 0 96 129l159 -55q-60 -244 -265 -244q-122 0 -189 83q-51 63 -51 157zM238 812v205h191v-205h-191z" />
<glyph unicode="&#xc0;" horiz-adv-x="720" vert-adv-y="2457" d="M55 0l186 1365h247l178 -1365h-188l-34 307h-171l-34 -307h-184zM160 1628h199l93 -153h-144zM293 484h131l-66 634z" />
<glyph unicode="&#xc1;" horiz-adv-x="720" vert-adv-y="2457" d="M55 0l186 1365h247l178 -1365h-188l-34 307h-171l-34 -307h-184zM290 1475l93 153h199l-148 -153h-144zM293 484h131l-66 634z" />
<glyph unicode="&#xc2;" horiz-adv-x="720" vert-adv-y="2457" d="M55 0l186 1365h247l178 -1365h-188l-34 307h-171l-34 -307h-184zM172 1474l92 156h193l92 -156h-143l-45 53l-46 -53h-143zM293 484h131l-66 634z" />
<glyph unicode="&#xc3;" horiz-adv-x="720" vert-adv-y="2457" d="M55 0l186 1365h247l178 -1365h-188l-34 307h-171l-34 -307h-184zM193 1470v141q45 31 96 31q35 0 74 -17q56 -23 83 -23q32 0 82 35v-142q-50 -35 -82 -35q-27 0 -83 23q-39 17 -74 17q-51 0 -96 -30zM293 484h131l-66 634z" />
<glyph unicode="&#xc4;" horiz-adv-x="720" vert-adv-y="2457" d="M55 0l186 1365h247l178 -1365h-188l-34 307h-171l-34 -307h-184zM149 1474v182h157v-182h-157zM293 484h131l-66 634zM415 1474v182h157v-182h-157z" />
<glyph unicode="&#xc5;" horiz-adv-x="720" vert-adv-y="2457" d="M55 0l186 1365h247l178 -1365h-188l-34 307h-171l-34 -307h-184zM210 1563q0 61 44 100q47 42 108 42q59 0 105 -42q44 -40 44 -99q0 -61 -44 -102q-44 -42 -106 -42t-107 42q-44 42 -44 101zM285 1563q0 -30 22 -51q23 -21 54 -21t53 21t22 51t-22 50q-23 21 -52 21 q-32 0 -55 -21q-22 -20 -22 -50zM293 484h131l-66 634z" />
<glyph unicode="&#xc6;" horiz-adv-x="1006" vert-adv-y="2457" d="M20 0l345 1365h578v-177h-270v-384h191v-177h-191v-450h289v-177h-481v307h-195l-72 -307h-194zM327 484h155v647z" />
<glyph unicode="&#xc7;" vert-adv-y="2457" d="M79 306v753q0 327 269 327q276 0 276 -356q0 -39 -4 -108h-191q4 57 4 93q0 100 -10 135q-17 59 -75 59q-45 0 -63 -32q-15 -27 -15 -118v-753q0 -90 15 -118q17 -32 63 -32q52 0 69 42q16 40 16 145q0 52 -4 142h190q5 -99 5 -144q0 -362 -276 -362q-269 0 -269 327z M271 -96h160v-138l-45 -114h-97l36 114h-54v138z" />
<glyph unicode="&#xc8;" horiz-adv-x="602" vert-adv-y="2457" d="M82 0v1365h460v-177h-269v-384h189v-177h-189v-450h286v-177h-477zM140 1628h198l93 -153h-143z" />
<glyph unicode="&#xc9;" horiz-adv-x="602" vert-adv-y="2457" d="M82 0v1365h460v-177h-269v-384h189v-177h-189v-450h286v-177h-477zM231 1475l93 153h198l-148 -153h-143z" />
<glyph unicode="&#xca;" horiz-adv-x="602" vert-adv-y="2457" d="M82 0v1365h460v-177h-269v-384h189v-177h-189v-450h286v-177h-477zM126 1474l92 156h193l92 -156h-143l-46 53l-45 -53h-143z" />
<glyph unicode="&#xcb;" horiz-adv-x="602" vert-adv-y="2457" d="M82 0v1365h460v-177h-269v-384h189v-177h-189v-450h286v-177h-477zM90 1474v182h157v-182h-157zM356 1474v182h157v-182h-157z" />
<glyph unicode="&#xcc;" horiz-adv-x="355" vert-adv-y="2457" d="M-23 1628h198l94 -153h-144zM82 0v1365h191v-1365h-191z" />
<glyph unicode="&#xcd;" horiz-adv-x="355" vert-adv-y="2457" d="M82 0v1365h191v-1365h-191zM103 1475l93 153h199l-148 -153h-144z" />
<glyph unicode="&#xce;" horiz-adv-x="355" vert-adv-y="2457" d="M-11 1474l92 156h193l92 -156h-143l-45 53l-46 -53h-143zM82 0v1365h191v-1365h-191z" />
<glyph unicode="&#xcf;" horiz-adv-x="355" vert-adv-y="2457" d="M-20 1474v182h157v-182h-157zM82 0v1365h191v-1365h-191zM219 1474v182h157v-182h-157z" />
<glyph unicode="&#xd0;" horiz-adv-x="702" vert-adv-y="2457" d="M12 627v177h70v561h204q126 0 185 -29q151 -73 151 -285v-737q0 -154 -86 -239q-50 -50 -115 -63q-56 -12 -135 -12h-204v627h-70zM273 178h24q85 0 112 36q22 29 22 100v737q0 83 -34 111q-30 26 -100 26h-24v-384h64v-177h-64v-449z" />
<glyph unicode="&#xd1;" horiz-adv-x="770" vert-adv-y="2457" d="M82 0v1365h165l250 -804v804h191v-1365h-191l-224 716v-716h-191zM218 1470v141q45 31 96 31q35 0 74 -17q56 -23 83 -23q32 0 82 35v-142q-50 -35 -82 -35q-27 0 -83 23q-39 17 -74 17q-51 0 -96 -30z" />
<glyph unicode="&#xd2;" horiz-adv-x="699" vert-adv-y="2457" d="M79 348v671q0 137 11 178q26 106 121 155q63 33 139 33q93 0 164 -48q84 -57 101 -167q5 -34 5 -151v-671q0 -137 -11 -179q-26 -106 -121 -156q-63 -33 -139 -33q-93 0 -164 48q-84 58 -101 169q-5 34 -5 151zM183 1628h199l93 -153h-144zM270 268q0 -55 14 -77 q22 -34 65 -34q44 0 65 34q15 23 15 77v829q0 55 -14 77q-22 34 -66 34q-43 0 -65 -34q-14 -22 -14 -77v-829z" />
<glyph unicode="&#xd3;" horiz-adv-x="699" vert-adv-y="2457" d="M79 348v671q0 137 11 178q26 106 121 155q63 33 139 33q93 0 164 -48q84 -57 101 -167q5 -34 5 -151v-671q0 -137 -11 -179q-26 -106 -121 -156q-63 -33 -139 -33q-93 0 -164 48q-84 58 -101 169q-5 34 -5 151zM270 268q0 -55 14 -77q22 -34 65 -34q44 0 65 34 q15 23 15 77v829q0 55 -14 77q-22 34 -66 34q-43 0 -65 -34q-14 -22 -14 -77v-829zM288 1475l93 153h198l-148 -153h-143z" />
<glyph unicode="&#xd4;" horiz-adv-x="699" vert-adv-y="2457" d="M79 348v671q0 137 11 178q26 106 121 155q63 33 139 33q93 0 164 -48q84 -57 101 -167q5 -34 5 -151v-671q0 -137 -11 -179q-26 -106 -121 -156q-63 -33 -139 -33q-93 0 -164 48q-84 58 -101 169q-5 34 -5 151zM161 1474l92 156h193l92 -156h-143l-46 53l-45 -53h-143z M270 268q0 -55 14 -77q22 -34 65 -34q44 0 65 34q15 23 15 77v829q0 55 -14 77q-22 34 -66 34q-43 0 -65 -34q-14 -22 -14 -77v-829z" />
<glyph unicode="&#xd5;" horiz-adv-x="699" vert-adv-y="2457" d="M79 348v671q0 137 11 178q26 106 121 155q63 33 139 33q93 0 164 -48q84 -57 101 -167q5 -34 5 -151v-671q0 -137 -11 -179q-26 -106 -121 -156q-63 -33 -139 -33q-93 0 -164 48q-84 58 -101 169q-5 34 -5 151zM182 1470v141q45 31 96 31q35 0 74 -17q56 -23 83 -23 q32 0 82 35v-142q-50 -35 -82 -35q-27 0 -83 23q-39 17 -74 17q-51 0 -96 -30zM270 268q0 -55 14 -77q22 -34 65 -34q44 0 65 34q15 23 15 77v829q0 55 -14 77q-22 34 -66 34q-43 0 -65 -34q-14 -22 -14 -77v-829z" />
<glyph unicode="&#xd6;" horiz-adv-x="699" vert-adv-y="2457" d="M79 348v671q0 137 11 178q26 106 121 155q63 33 139 33q93 0 164 -48q84 -57 101 -167q5 -34 5 -151v-671q0 -137 -11 -179q-26 -106 -121 -156q-63 -33 -139 -33q-93 0 -164 48q-84 58 -101 169q-5 34 -5 151zM138 1474v182h157v-182h-157zM270 268q0 -55 14 -77 q22 -34 65 -34q44 0 65 34q15 23 15 77v829q0 55 -14 77q-22 34 -66 34q-43 0 -65 -34q-14 -22 -14 -77v-829zM404 1474v182h157v-182h-157z" />
<glyph unicode="&#xd7;" vert-adv-y="2457" d="M91 860l105 105l158 -157l141 141l95 -96l-141 -141l155 -154l-106 -105l-154 154l-139 -139l-96 96l139 139z" />
<glyph unicode="&#xd8;" horiz-adv-x="699" vert-adv-y="2457" d="M79 -65l48 152q-19 29 -29 61q-18 57 -18 187v684q0 137 10 178q27 106 121 155q63 33 138 33q91 0 168 -50l30 95h73l-47 -150q24 -39 36 -82q11 -42 11 -179v-671q0 -137 -11 -179q-26 -106 -121 -156q-63 -33 -137 -33q-98 0 -174 54l-31 -99h-67zM271 268 q0 -55 14 -77q21 -34 65 -34q43 0 64 34q15 22 15 77v558l-158 -498v-60zM271 547l158 506v44q0 55 -14 77q-22 34 -65 34q-44 0 -65 -34q-14 -23 -14 -77v-550z" />
<glyph unicode="&#xd9;" horiz-adv-x="705" vert-adv-y="2457" d="M82 346v1019h191v-1097q0 -54 14 -77q22 -34 65 -34q44 0 66 34q14 22 14 77v1097h191v-1019q0 -137 -11 -178q-26 -106 -121 -155q-62 -33 -139 -33q-93 0 -164 48q-84 57 -101 167q-5 34 -5 151zM182 1628h199l93 -153h-144z" />
<glyph unicode="&#xda;" horiz-adv-x="705" vert-adv-y="2457" d="M82 346v1019h191v-1097q0 -54 14 -77q22 -34 65 -34q44 0 66 34q14 22 14 77v1097h191v-1019q0 -137 -11 -178q-26 -106 -121 -155q-62 -33 -139 -33q-93 0 -164 48q-84 57 -101 167q-5 34 -5 151zM273 1475l94 153h198l-148 -153h-144z" />
<glyph unicode="&#xdb;" horiz-adv-x="705" vert-adv-y="2457" d="M82 346v1019h191v-1097q0 -54 14 -77q22 -34 65 -34q44 0 66 34q14 22 14 77v1097h191v-1019q0 -137 -11 -178q-26 -106 -121 -155q-62 -33 -139 -33q-93 0 -164 48q-84 57 -101 167q-5 34 -5 151zM164 1474l92 156h193l92 -156h-143l-46 53l-45 -53h-143z" />
<glyph unicode="&#xdc;" horiz-adv-x="705" vert-adv-y="2457" d="M82 346v1019h191v-1097q0 -54 14 -77q22 -34 65 -34q44 0 66 34q14 22 14 77v1097h191v-1019q0 -137 -11 -178q-26 -106 -121 -155q-62 -33 -139 -33q-93 0 -164 48q-84 57 -101 167q-5 34 -5 151zM141 1474v182h157v-182h-157zM407 1474v182h157v-182h-157z" />
<glyph unicode="&#xdd;" horiz-adv-x="670" vert-adv-y="2457" d="M27 1365h206l104 -503l105 503h200l-212 -797v-568h-191v568zM256 1475l93 153h198l-148 -153h-143z" />
<glyph unicode="&#xde;" horiz-adv-x="673" vert-adv-y="2457" d="M82 0v1365h191v-164q113 -1 170 -18q74 -20 122 -101q42 -72 48 -150q5 -59 5 -140q0 -167 -24 -232q-61 -170 -295 -170h-26v-390h-191zM273 568h27q88 0 115 50q19 35 19 178q0 150 -23 185q-30 43 -111 43h-27v-456z" />
<glyph unicode="&#xdf;" horiz-adv-x="632" vert-adv-y="2457" d="M76 0v1040q0 120 12 171q41 168 224 168q127 0 185 -82q47 -67 47 -206v-54q0 -92 -6 -118q-14 -60 -80 -98q47 -12 67 -31q34 -32 34 -118v-340q0 -148 -14 -199q-24 -93 -89 -120q-62 -27 -111 -27q-11 0 -34 3v162q36 1 49 15q20 21 20 114v338q0 97 -22 113 q-14 10 -51 10v159q30 0 40 6q20 13 20 67v146q0 64 -15 84q-15 21 -43 21q-39 0 -48 -44q-6 -29 -6 -110v-1070h-179z" />
<glyph unicode="&#xe0;" horiz-adv-x="628" vert-adv-y="2457" d="M62 243q0 121 49 203q45 77 169 156l89 59v114q0 55 -7 69q-13 23 -49 23q-46 0 -60 -46q-8 -27 -12 -103h-172q12 144 46 205q60 108 202 108q108 0 169 -64q60 -61 60 -179v-624q0 -103 19 -164h-184q-8 36 -12 83q-65 -97 -151 -97q-156 0 -156 257zM152 1337h198 l93 -153h-143zM239 258q0 -107 56 -107q38 0 74 54v316q-78 -64 -106 -127q-24 -53 -24 -136z" />
<glyph unicode="&#xe1;" horiz-adv-x="628" vert-adv-y="2457" d="M62 243q0 121 49 203q45 77 169 156l89 59v114q0 55 -7 69q-13 23 -49 23q-46 0 -60 -46q-8 -27 -12 -103h-172q12 144 46 205q60 108 202 108q108 0 169 -64q60 -61 60 -179v-624q0 -103 19 -164h-184q-8 36 -12 83q-65 -97 -151 -97q-156 0 -156 257zM239 258 q0 -107 56 -107q38 0 74 54v316q-78 -64 -106 -127q-24 -53 -24 -136zM243 1184l93 153h199l-148 -153h-144z" />
<glyph unicode="&#xe2;" horiz-adv-x="628" vert-adv-y="2457" d="M62 243q0 121 49 203q45 77 169 156l89 59v114q0 55 -7 69q-13 23 -49 23q-46 0 -60 -46q-8 -27 -12 -103h-172q12 144 46 205q60 108 202 108q108 0 169 -64q60 -61 60 -179v-624q0 -103 19 -164h-184q-8 36 -12 83q-65 -97 -151 -97q-156 0 -156 257zM138 1183l92 156 h193l92 -156h-143l-46 53l-45 -53h-143zM239 258q0 -107 56 -107q38 0 74 54v316q-78 -64 -106 -127q-24 -53 -24 -136z" />
<glyph unicode="&#xe3;" horiz-adv-x="628" vert-adv-y="2457" d="M62 243q0 121 49 203q45 77 169 156l89 59v114q0 55 -7 69q-13 23 -49 23q-46 0 -60 -46q-8 -27 -12 -103h-172q12 144 46 205q60 108 202 108q108 0 169 -64q60 -61 60 -179v-624q0 -103 19 -164h-184q-8 36 -12 83q-65 -97 -151 -97q-156 0 -156 257zM154 1178v142 q45 31 96 31q35 0 74 -17q56 -23 83 -23q33 0 82 35v-142q-50 -35 -82 -35q-27 0 -83 23q-39 17 -74 17q-51 0 -96 -31zM239 258q0 -107 56 -107q38 0 74 54v316q-78 -64 -106 -127q-24 -53 -24 -136z" />
<glyph unicode="&#xe4;" horiz-adv-x="628" vert-adv-y="2457" d="M62 243q0 121 49 203q45 77 169 156l89 59v114q0 55 -7 69q-13 23 -49 23q-46 0 -60 -46q-8 -27 -12 -103h-172q12 144 46 205q60 108 202 108q108 0 169 -64q60 -61 60 -179v-624q0 -103 19 -164h-184q-8 36 -12 83q-65 -97 -151 -97q-156 0 -156 257zM112 1183v182h157 v-182h-157zM239 258q0 -107 56 -107q38 0 74 54v316q-78 -64 -106 -127q-24 -53 -24 -136zM358 1183v182h157v-182h-157z" />
<glyph unicode="&#xe5;" horiz-adv-x="628" vert-adv-y="2457" d="M62 243q0 121 49 203q45 77 169 156l89 59v114q0 55 -7 69q-13 23 -49 23q-46 0 -60 -46q-8 -27 -12 -103h-172q12 144 46 205q60 108 202 108q108 0 169 -64q60 -61 60 -179v-624q0 -103 19 -164h-184q-8 36 -12 83q-65 -97 -151 -97q-156 0 -156 257zM163 1287 q0 61 44 100q47 42 108 42q59 0 105 -42q44 -39 44 -99q0 -61 -44 -102q-44 -42 -106 -42t-107 42q-44 42 -44 101zM238 1287q0 -30 22 -51q23 -21 54 -21t53 21t22 51q0 31 -22 50q-23 21 -53 21q-31 0 -54 -21q-22 -20 -22 -50zM239 258q0 -107 56 -107q38 0 74 54v316 q-78 -64 -106 -127q-24 -53 -24 -136z" />
<glyph unicode="&#xe6;" horiz-adv-x="930" vert-adv-y="2457" d="M61 243q0 121 49 203q45 77 169 157l89 58v114q0 55 -7 69q-13 23 -49 23q-46 0 -60 -46q-8 -27 -12 -103h-172q12 143 46 204q60 109 197 109q70 0 114 -34q14 -12 36 -36q28 32 51 45q41 25 107 25q106 0 171 -69q64 -68 64 -185v-299h-309v-224q0 -105 65 -105 q39 0 55 32q12 23 12 89v45v41h177q3 -74 3 -94q0 -115 -47 -183q-64 -93 -208 -93q-81 0 -129 29q-29 18 -67 69q-50 -53 -85 -73q-44 -24 -93 -24q-167 0 -167 256zM238 259q0 -107 58 -107q34 0 72 56v314q-78 -65 -106 -128q-24 -53 -24 -135zM545 620h132v172 q0 75 -66 75t-66 -75v-172z" />
<glyph unicode="&#xe7;" horiz-adv-x="613" vert-adv-y="2457" d="M72 273v471q0 132 55 202q67 85 183 85q139 0 203 -93q47 -67 47 -183q0 -19 -2 -94h-178v41v45q0 66 -12 89q-16 32 -55 32q-64 0 -64 -105v-509q0 -105 64 -105q39 0 55 32q12 23 12 89v45v58h178q2 -87 2 -108q0 -119 -47 -186q-64 -93 -202 -93q-117 0 -184 86 q-55 69 -55 201zM236 -96h160v-138l-45 -114h-97l36 114h-54v138z" />
<glyph unicode="&#xe8;" horiz-adv-x="634" vert-adv-y="2457" d="M72 273v473q0 135 54 204q63 81 193 81q111 0 175 -69q64 -68 64 -185v-299h-309v-224q0 -105 65 -105q39 0 55 32q12 23 12 89v45v41h177q3 -74 3 -94q0 -116 -47 -183q-64 -93 -202 -93q-118 0 -185 86q-55 69 -55 201zM146 1337h199l93 -153h-144zM249 620h132v172 q0 75 -66 75t-66 -75v-172z" />
<glyph unicode="&#xe9;" horiz-adv-x="634" vert-adv-y="2457" d="M72 273v473q0 135 54 204q63 81 193 81q111 0 175 -69q64 -68 64 -185v-299h-309v-224q0 -105 65 -105q39 0 55 32q12 23 12 89v45v41h177q3 -74 3 -94q0 -116 -47 -183q-64 -93 -202 -93q-118 0 -185 86q-55 69 -55 201zM242 1184l93 153h198l-148 -153h-143zM249 620 h132v172q0 75 -66 75t-66 -75v-172z" />
<glyph unicode="&#xea;" horiz-adv-x="634" vert-adv-y="2457" d="M72 273v473q0 135 54 204q63 81 193 81q111 0 175 -69q64 -68 64 -185v-299h-309v-224q0 -105 65 -105q39 0 55 32q12 23 12 89v45v41h177q3 -74 3 -94q0 -116 -47 -183q-64 -93 -202 -93q-118 0 -185 86q-55 69 -55 201zM128 1183l92 156h193l92 -156h-143l-45 53 l-46 -53h-143zM249 620h132v172q0 75 -66 75t-66 -75v-172z" />
<glyph unicode="&#xeb;" horiz-adv-x="634" vert-adv-y="2457" d="M72 273v473q0 135 54 204q63 81 193 81q111 0 175 -69q64 -68 64 -185v-299h-309v-224q0 -105 65 -105q39 0 55 32q12 23 12 89v45v41h177q3 -74 3 -94q0 -116 -47 -183q-64 -93 -202 -93q-118 0 -185 86q-55 69 -55 201zM115 1183v182h157v-182h-157zM249 620h132v172 q0 75 -66 75t-66 -75v-172zM361 1183v182h157v-182h-157z" />
<glyph unicode="&#xec;" horiz-adv-x="330" vert-adv-y="2457" d="M-35 1337h198l94 -153h-144zM77 0v1017h177v-1017h-177z" />
<glyph unicode="&#xed;" horiz-adv-x="330" vert-adv-y="2457" d="M76 0v1017h177v-1017h-177zM103 1184l93 153h199l-148 -153h-144z" />
<glyph unicode="&#xee;" horiz-adv-x="330" vert-adv-y="2457" d="M-23 1183l92 156h193l92 -156h-143l-45 53l-46 -53h-143zM77 0v1017h177v-1017h-177z" />
<glyph unicode="&#xef;" horiz-adv-x="330" vert-adv-y="2457" d="M-22 1183v182h157v-182h-157zM77 0v1017h177v-1017h-177zM196 1183v182h157v-182h-157z" />
<glyph unicode="&#xf0;" horiz-adv-x="631" vert-adv-y="2457" d="M72 276v463q0 130 42 200q28 45 82 71q39 18 80 18q49 0 110 -37q-30 123 -72 187l-92 -77l-53 63l96 80q-30 35 -60 62l90 88q34 -27 72 -64l109 91l53 -62l-107 -91q47 -65 76 -132q60 -139 60 -328v-532q0 -125 -41 -191q-61 -99 -211 -99q-112 0 -173 73 q-61 72 -61 217zM249 248q0 -95 66 -95t66 95v523q0 93 -66 93t-66 -93v-523z" />
<glyph unicode="&#xf1;" horiz-adv-x="635" vert-adv-y="2457" d="M76 0v1017h173l4 -88q99 102 170 102q42 0 79 -27q40 -30 50 -92q6 -34 6 -114v-798h-177v791q0 76 -46 76q-33 0 -82 -41v-826h-177zM149 1178v142q46 31 96 31q35 0 74 -17q56 -23 83 -23q32 0 82 35v-142q-50 -35 -82 -35q-27 0 -83 23q-39 17 -74 17q-50 0 -96 -31z " />
<glyph unicode="&#xf2;" horiz-adv-x="631" vert-adv-y="2457" d="M72 273v471q0 287 243 287t243 -287v-471q0 -287 -243 -287t-243 287zM132 1337h198l94 -153h-144zM249 244q0 -94 66 -94t66 94v529q0 94 -66 94t-66 -94v-529z" />
<glyph unicode="&#xf3;" horiz-adv-x="631" vert-adv-y="2457" d="M72 273v471q0 287 243 287t243 -287v-471q0 -287 -243 -287t-243 287zM245 1184l93 153h198l-148 -153h-143zM249 244q0 -94 66 -94t66 94v529q0 94 -66 94t-66 -94v-529z" />
<glyph unicode="&#xf4;" horiz-adv-x="631" vert-adv-y="2457" d="M72 273v471q0 287 243 287t243 -287v-471q0 -287 -243 -287t-243 287zM127 1183l92 156h193l92 -156h-143l-46 53l-46 -53h-142zM249 244q0 -94 66 -94t66 94v529q0 94 -66 94t-66 -94v-529z" />
<glyph unicode="&#xf5;" horiz-adv-x="631" vert-adv-y="2457" d="M72 273v471q0 287 243 287t243 -287v-471q0 -287 -243 -287t-243 287zM148 1178v142q46 31 96 31q35 0 74 -17q56 -23 83 -23q32 0 82 35v-142q-50 -35 -82 -35q-27 0 -83 23q-39 17 -74 17q-50 0 -96 -31zM249 244q0 -94 66 -94t66 94v529q0 94 -66 94t-66 -94v-529z " />
<glyph unicode="&#xf6;" horiz-adv-x="631" vert-adv-y="2457" d="M72 273v471q0 287 243 287t243 -287v-471q0 -287 -243 -287t-243 287zM114 1183v182h157v-182h-157zM249 244q0 -94 66 -94t66 94v529q0 94 -66 94t-66 -94v-529zM360 1183v182h157v-182h-157z" />
<glyph unicode="&#xf7;" vert-adv-y="2457" d="M76 641v135h545v-135h-545zM275 349v158h147v-158h-147zM275 908v158h147v-158h-147z" />
<glyph unicode="&#xf8;" horiz-adv-x="631" vert-adv-y="2457" d="M72 273v471q0 287 241 287q72 0 121 -25l33 106h67l-46 -145q70 -71 70 -223v-471q0 -287 -242 -287q-77 0 -131 31l-29 -90h-60l41 129l-13 15q-52 69 -52 202zM249 417l127 402q-15 48 -61 48q-66 0 -66 -94v-356zM250 223q10 -73 65 -73q66 0 66 94v386z" />
<glyph unicode="&#xf9;" horiz-adv-x="635" vert-adv-y="2457" d="M76 219v798h177v-791q0 -76 46 -76q33 0 82 41v826h177v-1017h-162l-15 88q-99 -102 -170 -102q-42 0 -79 27q-40 30 -50 92q-6 34 -6 114zM138 1337h199l93 -153h-144z" />
<glyph unicode="&#xfa;" horiz-adv-x="635" vert-adv-y="2457" d="M76 219v798h177v-791q0 -76 46 -76q33 0 82 41v826h177v-1017h-162l-15 88q-99 -102 -170 -102q-42 0 -79 27q-40 30 -50 92q-6 34 -6 114zM255 1184l94 153h198l-148 -153h-144z" />
<glyph unicode="&#xfb;" horiz-adv-x="635" vert-adv-y="2457" d="M76 219v798h177v-791q0 -76 46 -76q33 0 82 41v826h177v-1017h-162l-15 88q-99 -102 -170 -102q-42 0 -79 27q-40 30 -50 92q-6 34 -6 114zM129 1183l92 156h193l92 -156h-143l-46 53l-46 -53h-142z" />
<glyph unicode="&#xfc;" horiz-adv-x="635" vert-adv-y="2457" d="M76 219v798h177v-791q0 -76 46 -76q33 0 82 41v826h177v-1017h-162l-15 88q-99 -102 -170 -102q-42 0 -79 27q-40 30 -50 92q-6 34 -6 114zM116 1183v182h157v-182h-157zM362 1183v182h157v-182h-157z" />
<glyph unicode="&#xfd;" horiz-adv-x="582" vert-adv-y="2457" d="M34 1017h174l81 -598l87 598h172l-186 -1155q-17 -105 -71 -156q-71 -68 -189 -68q-25 0 -54 5v172q11 -1 15 -1q62 0 95 30q35 31 35 125q0 66 -19 178zM220 1184l93 153h199l-148 -153h-144z" />
<glyph unicode="&#xfe;" horiz-adv-x="631" vert-adv-y="2457" d="M76 -348v1713h177v-444q96 110 170 110q42 0 79 -28q40 -30 50 -94q6 -35 6 -118v-565q0 -135 -28 -181q-16 -28 -51 -45q-27 -14 -55 -14q-75 0 -171 110v-444h-177zM253 191q49 -41 82 -41q46 0 46 76v565q0 76 -46 76q-33 0 -82 -41v-635z" />
<glyph unicode="&#xff;" horiz-adv-x="582" vert-adv-y="2457" d="M34 1017h174l81 -598l87 598h172l-186 -1155q-17 -105 -71 -156q-71 -68 -189 -68q-25 0 -54 5v172q11 -1 15 -1q62 0 95 30q35 31 35 125q0 66 -19 178zM89 1183v182h157v-182h-157zM335 1183v182h156v-182h-156z" />
<glyph unicode="&#x152;" horiz-adv-x="949" vert-adv-y="2457" d="M79 369v630q0 99 3.5 135.5t15.5 69.5q45 122 184 153q35 8 147 8h460v-177h-269v-384h188v-177h-188v-450h285v-177h-476q-111 0 -147 8q-139 31 -184 154q-16 43 -18 107q-1 37 -1 100zM270 288q0 -54 14 -77q22 -34 65 -34h80v1011h-80q-43 0 -65 -34q-14 -23 -14 -77 v-789z" />
<glyph unicode="&#x153;" horiz-adv-x="942" vert-adv-y="2457" d="M72 273v471q0 133 52 202q64 85 185 85q77 0 159 -48q84 48 162 48q108 0 173 -69q64 -68 64 -185v-299h-309v-224q0 -105 65 -105q39 0 55 32q12 23 12 89v45v41h177q3 -74 3 -94q0 -116 -47 -183q-64 -93 -203 -93q-48 0 -77 11q-28 11 -75 43q-33 -26 -51 -35 q-39 -19 -108 -19q-120 0 -185 85q-52 68 -52 202zM249 244q0 -94 66 -94t66 94v529q0 94 -66 94t-66 -94v-529zM558 620h132v172q0 75 -66 75t-66 -75v-172z" />
<glyph unicode="&#x178;" horiz-adv-x="670" vert-adv-y="2457" d="M27 1365h206l104 -503l105 503h200l-212 -797v-568h-191v568zM123 1474v182h157v-182h-157zM389 1474v182h157v-182h-157z" />
<glyph unicode="&#x2c6;" horiz-adv-x="1024" vert-adv-y="2457" d="M324 1183l92 156h193l92 -156h-143l-45 53l-46 -53h-143z" />
<glyph unicode="&#x2dc;" horiz-adv-x="1024" vert-adv-y="2457" d="M344 1178v142q45 31 96 31q35 0 74 -17q56 -23 83 -23q33 0 82 35v-142q-50 -35 -82 -35q-27 0 -83 23q-39 17 -74 17q-51 0 -96 -31z" />
<glyph unicode="&#x2013;" vert-adv-y="2457" d="M78 427v160h541v-160h-541z" />
<glyph unicode="&#x2014;" horiz-adv-x="783" vert-adv-y="0" d="M0 427v160h783v-160h-783z" />
<glyph unicode="&#x2018;" horiz-adv-x="382" vert-adv-y="0" d="M96 946v205l86 242h105l-70 -242h70v-205h-191z" />
<glyph unicode="&#x2019;" horiz-adv-x="382" vert-adv-y="0" d="M96 919l70 241h-70v205h191v-205l-86 -241h-105z" />
<glyph unicode="&#x201a;" horiz-adv-x="382" vert-adv-y="0" d="M96 0v205h191v-205l-86 -242h-105l70 242h-70z" />
<glyph unicode="&#x201c;" horiz-adv-x="662" vert-adv-y="0" d="M96 946v205l86 242h105l-70 -242h70v-205h-191zM376 946v205l86 242h105l-70 -242h70v-205h-191z" />
<glyph unicode="&#x201d;" horiz-adv-x="662" vert-adv-y="0" d="M96 919l70 241h-70v205h191v-205l-86 -241h-105zM376 919l70 241h-70v205h191v-205l-86 -241h-105z" />
<glyph unicode="&#x201e;" horiz-adv-x="662" vert-adv-y="0" d="M96 0v205h191v-205l-86 -242h-105l70 242h-70zM376 0v205h191v-205l-86 -242h-105l70 242h-70z" />
<glyph unicode="&#x2022;" horiz-adv-x="1365" vert-adv-y="0" d="M401 694q0 121 84 202q86 82 204 82q113 0 196 -83q84 -83 84 -201t-83 -201t-201 -83q-116 0 -199 82q-85 84 -85 202z" />
<glyph unicode="&#x2026;" horiz-adv-x="1147" vert-adv-y="0" d="M96 0v205h191v-205h-191zM478 0v205h191v-205h-191zM861 0v205h191v-205h-191z" />
<glyph unicode="&#x2039;" horiz-adv-x="319" vert-adv-y="0" d="M82 365v294l156 167v-245l-53 -69l53 -69v-245z" />
<glyph unicode="&#x203a;" horiz-adv-x="319" vert-adv-y="0" d="M82 198v245l53 69l-53 69v245l156 -167v-294z" />
<glyph unicode="&#x20ac;" vert-adv-y="2457" d="M-2 496l56 137h77v64h-133l56 137h77v226q0 326 269 326q276 0 276 -354v-24h-191q0 74 -5 115q-10 86 -80 86q-45 0 -63 -32q-15 -27 -15 -117v-226h286l-55 -137h-231v-64h209l-56 -137h-153v-190q0 -90 15 -118q17 -32 63 -32q64 0 78 77q7 32 7 99h191v-7 q-6 -346 -276 -346q-269 0 -269 327v190h-133z" />
<glyph unicode="&#x2122;" horiz-adv-x="1009" vert-adv-y="2457" d="M61 1252v113h336v-113h-107v-665h-125v665h-104zM451 587v778h144l86 -375l86 375h146v-778h-109v470l-93 -470h-60l-93 469v-469h-107z" />
<glyph unicode="&#xe000;" horiz-adv-x="1014" vert-adv-y="2029" d="M0 1015h1015v-1015h-1015v1015z" />
<glyph unicode="&#xfb01;" horiz-adv-x="674" vert-adv-y="2457" d="M22 853v164h81v120q0 110 41 163q52 68 174 68q54 0 161 -8v-166q-68 8 -119 8q-48 0 -64 -16t-16 -49v-120h318v-1017h-177v853h-141v-853h-177v853h-81z" />
<glyph unicode="&#xfb02;" horiz-adv-x="674" vert-adv-y="2457" d="M22 853v164h81v120q0 90 22 134q49 98 198 98l98 -4h177v-1365h-177v1200q-55 3 -71 3q-70 0 -70 -66v-120h83v-164h-83v-853h-177v853h-81z" />
<glyph unicode="&#xfb03;" horiz-adv-x="1098" vert-adv-y="2457" d="M22 853v164h81v120q0 112 41 163q53 68 159 68q27 0 67 -3v-164q-14 1 -25 1q-65 0 -65 -65v-120h90v-164h-90v-853h-177v853h-81zM406 853v164h80v120q0 112 41 163q53 68 159 68q28 0 68 -3v-164q-14 1 -25 1q-66 0 -66 -65v-120h91v-164h-91v-853h-177v853h-80zM844 0 v1017h177v-1017h-177zM844 1183v182h177v-182h-177z" />
<glyph unicode="&#xfb04;" horiz-adv-x="1098" vert-adv-y="2457" d="M22 853v164h81v120q0 112 41 163q53 68 159 68q27 0 67 -3v-164q-14 1 -25 1q-65 0 -65 -65v-120h90v-164h-90v-853h-177v853h-81zM406 853v164h80v120q0 112 41 163q53 68 159 68q28 0 68 -3v-164q-14 1 -25 1q-66 0 -66 -65v-120h91v-164h-91v-853h-177v853h-80zM844 0 v1365h177v-1365h-177z" />
</font>
</defs>
</svg>
